<svg width="22" height="23" viewBox="0 0 22 23" fill="none" xmlns="http://www.w3.org/2000/svg">
<path fill-rule="evenodd" clip-rule="evenodd" d="M6.94513 0.250001H15.0549C16.4225 0.24998 17.5248 0.249963 18.3918 0.366524C19.2919 0.48754 20.0497 0.746434 20.6517 1.34835C21.2536 1.95027 21.5125 2.70814 21.6335 3.60825C21.75 4.47522 21.75 5.57754 21.75 6.94513V11.0549C21.75 12.4225 21.75 13.5248 21.6335 14.3918C21.5125 15.2919 21.2536 16.0497 20.6517 16.6516C20.1537 17.1496 19.5469 17.4146 18.8361 17.5593C18.1459 17.6998 17.3133 17.7352 16.3276 17.7457L16.322 17.7458L16.0976 17.7464C16.0008 18.0506 15.8435 18.34 15.6255 18.5958C15.4944 18.7496 15.4152 18.9408 15.3991 19.1423C15.303 20.3466 14.3466 21.303 13.1423 21.3991C12.9409 21.4152 12.7496 21.4944 12.5958 21.6255C11.6762 22.4091 10.3238 22.4091 9.4042 21.6255C9.25039 21.4944 9.05915 21.4152 8.85771 21.3991C7.65336 21.303 6.69701 20.3466 6.6009 19.1423C6.58483 18.9409 6.50561 18.7496 6.37454 18.5958C6.15682 18.3403 5.99959 18.0514 5.90285 17.7477C4.86252 17.7407 3.9917 17.7125 3.27635 17.5811C2.51836 17.4418 1.87328 17.1766 1.34835 16.6517C0.746434 16.0497 0.487541 15.2919 0.366524 14.3918C0.249963 13.5248 0.24998 12.4225 0.250001 11.0549V6.94513C0.24998 5.57754 0.249963 4.47522 0.366524 3.60825C0.48754 2.70814 0.746434 1.95027 1.34835 1.34835C1.95027 0.746435 2.70814 0.48754 3.60825 0.366524C4.47522 0.249963 5.57754 0.24998 6.94513 0.250001ZM5.90434 16.2476C6.0012 15.9456 6.15794 15.6584 6.37454 15.4042C6.50561 15.2504 6.58483 15.0592 6.6009 14.8577C6.69701 13.6534 7.65336 12.697 8.85771 12.6009C9.05915 12.5848 9.25039 12.5056 9.4042 12.3745C10.3238 11.5909 11.6762 11.5909 12.5958 12.3745C12.7496 12.5056 12.9409 12.5848 13.1423 12.6009C14.3466 12.697 15.303 13.6534 15.3991 14.8577C15.4152 15.0592 15.4944 15.2504 15.6255 15.4042C15.8418 15.658 15.9984 15.9448 16.0953 16.2464L16.3144 16.2457C17.2997 16.2352 18.0022 16.1983 18.5368 16.0895C19.0513 15.9847 19.359 15.8229 19.591 15.591C19.8678 15.3142 20.0482 14.9257 20.1469 14.1919C20.2484 13.4365 20.25 12.4354 20.25 11V7C20.25 5.56458 20.2484 4.56347 20.1469 3.80812C20.0482 3.07435 19.8678 2.68577 19.591 2.40901C19.3142 2.13225 18.9257 1.9518 18.1919 1.85315C17.4365 1.75159 16.4354 1.75 15 1.75H7C5.56458 1.75 4.56347 1.75159 3.80812 1.85315C3.07435 1.9518 2.68577 2.13225 2.40901 2.40901C2.13225 2.68577 1.9518 3.07435 1.85315 3.80812C1.75159 4.56347 1.75 5.56459 1.75 7V11C1.75 12.4354 1.75159 13.4365 1.85315 14.1919C1.9518 14.9257 2.13225 15.3142 2.40901 15.591C2.65246 15.8344 2.98054 16.0016 3.54735 16.1057C4.11753 16.2105 4.86325 16.2404 5.90434 16.2476ZM7.25 5C7.25 4.58579 7.58579 4.25 8 4.25H14C14.4142 4.25 14.75 4.58579 14.75 5C14.75 5.41421 14.4142 5.75 14 5.75H8C7.58579 5.75 7.25 5.41421 7.25 5ZM5.25 8.5C5.25 8.08579 5.58579 7.75 6 7.75H16C16.4142 7.75 16.75 8.08579 16.75 8.5C16.75 8.91422 16.4142 9.25 16 9.25H6C5.58579 9.25 5.25 8.91422 5.25 8.5ZM11.6229 13.5162C11.264 13.2103 10.736 13.2103 10.3771 13.5162C9.98307 13.852 9.49312 14.055 8.97703 14.0961C8.50695 14.1337 8.13366 14.5069 8.09615 14.977C8.05496 15.4931 7.85202 15.9831 7.51621 16.3771C7.21034 16.736 7.21034 17.264 7.51621 17.6229C7.85202 18.0169 8.05496 18.5069 8.09615 19.023C8.13366 19.4931 8.50695 19.8663 8.97703 19.9039C9.49312 19.945 9.98307 20.148 10.3771 20.4838C10.736 20.7897 11.264 20.7897 11.6229 20.4838C12.0169 20.148 12.5069 19.945 13.023 19.9039C13.4931 19.8663 13.8663 19.4931 13.9039 19.023C13.945 18.5069 14.148 18.0169 14.4838 17.6229C14.7897 17.264 14.7897 16.736 14.4838 16.3771C14.148 15.9831 13.945 15.4931 13.9039 14.977C13.8663 14.5069 13.4931 14.1337 13.023 14.0961C12.5069 14.055 12.0169 13.852 11.6229 13.5162ZM11.9883 15.4517C12.2911 15.1691 12.7657 15.1854 13.0483 15.4883C13.3309 15.7911 13.3146 16.2657 13.0117 16.5483L10.8689 18.5483C10.5807 18.8172 10.1336 18.8172 9.84541 18.5483L8.98826 17.7483C8.68545 17.4657 8.66908 16.9911 8.95171 16.6883C9.23433 16.3854 9.70893 16.3691 10.0117 16.6517L10.3571 16.9741L11.9883 15.4517Z" fill="#1C274D"/>
</svg>
