<svg width="16" height="14" viewBox="0 0 16 14" fill="none" xmlns="http://www.w3.org/2000/svg">
<path d="M1.125 3.876H3.70312C3.84081 4.41376 4.15356 4.89039 4.59207 5.23077C5.03057 5.57115 5.56989 5.7559 6.125 5.7559C6.68011 5.7559 7.21943 5.57115 7.65793 5.23077C8.09644 4.89039 8.40919 4.41376 8.54688 3.876H14.875C15.0408 3.876 15.1997 3.81015 15.3169 3.69294C15.4342 3.57573 15.5 3.41676 15.5 3.251C15.5 3.08524 15.4342 2.92626 15.3169 2.80905C15.1997 2.69184 15.0408 2.626 14.875 2.626H8.54688C8.40919 2.08824 8.09644 1.6116 7.65793 1.27122C7.21943 0.930845 6.68011 0.746094 6.125 0.746094C5.56989 0.746094 5.03057 0.930845 4.59207 1.27122C4.15356 1.6116 3.84081 2.08824 3.70312 2.626H1.125C0.95924 2.626 0.800269 2.69184 0.683058 2.80905C0.565848 2.92626 0.5 3.08524 0.5 3.251C0.5 3.41676 0.565848 3.57573 0.683058 3.69294C0.800269 3.81015 0.95924 3.876 1.125 3.876ZM6.125 2.001C6.37223 2.001 6.6139 2.07431 6.81946 2.21166C7.02502 2.34901 7.18524 2.54423 7.27985 2.77264C7.37446 3.00105 7.39921 3.25238 7.35098 3.49486C7.30275 3.73733 7.1837 3.96006 7.00888 4.13488C6.83407 4.30969 6.61134 4.42875 6.36886 4.47698C6.12639 4.52521 5.87505 4.50045 5.64665 4.40585C5.41824 4.31124 5.22301 4.15102 5.08566 3.94546C4.94831 3.7399 4.875 3.49822 4.875 3.251C4.875 2.91948 5.0067 2.60153 5.24112 2.36711C5.47554 2.13269 5.79348 2.001 6.125 2.001ZM14.875 10.126H13.5469C13.4092 9.58824 13.0964 9.1116 12.6579 8.77122C12.2194 8.43085 11.6801 8.24609 11.125 8.24609C10.5699 8.24609 10.0306 8.43085 9.59207 8.77122C9.15356 9.1116 8.84081 9.58824 8.70312 10.126H1.125C0.95924 10.126 0.800269 10.1918 0.683058 10.3091C0.565848 10.4263 0.5 10.5852 0.5 10.751C0.5 10.9168 0.565848 11.0757 0.683058 11.1929C0.800269 11.3101 0.95924 11.376 1.125 11.376H8.70312C8.84081 11.9138 9.15356 12.3904 9.59207 12.7308C10.0306 13.0711 10.5699 13.2559 11.125 13.2559C11.6801 13.2559 12.2194 13.0711 12.6579 12.7308C13.0964 12.3904 13.4092 11.9138 13.5469 11.376H14.875C15.0408 11.376 15.1997 11.3101 15.3169 11.1929C15.4342 11.0757 15.5 10.9168 15.5 10.751C15.5 10.5852 15.4342 10.4263 15.3169 10.3091C15.1997 10.1918 15.0408 10.126 14.875 10.126ZM11.125 12.001C10.8778 12.001 10.6361 11.9277 10.4305 11.7903C10.225 11.653 10.0648 11.4578 9.97015 11.2294C9.87554 11.0009 9.85079 10.7496 9.89902 10.5071C9.94725 10.2647 10.0663 10.0419 10.2411 9.86711C10.4159 9.6923 10.6387 9.57325 10.8811 9.52501C11.1236 9.47678 11.3749 9.50154 11.6034 9.59615C11.8318 9.69076 12.027 9.85097 12.1643 10.0565C12.3017 10.2621 12.375 10.5038 12.375 10.751C12.375 11.0825 12.2433 11.4005 12.0089 11.6349C11.7745 11.8693 11.4565 12.001 11.125 12.001Z" fill="#474747"/>
</svg>
