<svg width="373" height="621" viewBox="0 0 373 621" fill="none" xmlns="http://www.w3.org/2000/svg">
<path fill-rule="evenodd" clip-rule="evenodd" d="M105.716 23.6948C120.785 13.7488 142.658 5.50808 164.051 1.7153C176.069 -0.414829 208.132 0.240304 218.735 2.83331C252.049 10.9808 278.895 27.6004 298.785 52.3905C305.672 60.9743 318.892 84.4253 318.892 88.0581C318.892 89.1047 320.81 89.943 324.36 90.4461C333.51 91.7449 346.791 96.6247 352.523 100.794C359.726 106.033 366.49 114.773 369.641 122.913C373.237 132.204 373.253 150.642 369.673 160.624C362.466 180.722 343.353 194.591 322.865 194.591C320.68 194.591 318.892 195.037 318.892 195.581C318.892 196.126 315.251 202.036 310.799 208.716C302.182 221.647 291.429 232.716 279.835 240.59C275.989 243.202 272.843 245.874 272.843 246.529C272.843 247.183 276.469 259.491 280.901 273.879C285.334 288.267 288.96 300.629 288.96 301.35C288.96 302.072 291.938 303.519 295.58 304.567C317.484 310.872 318.892 311.39 318.869 313.13C318.857 314.112 318.084 320.614 317.153 327.58C316.22 334.546 315.453 340.562 315.448 340.951C315.443 341.339 319.742 345.225 325.003 349.586C341.455 363.229 349.327 373.506 352.685 385.727C359.372 410.058 352.118 430.491 331.88 444.324L328.177 446.856L331.16 453.425C339.686 472.202 344.227 491.864 344.202 509.894C344.177 528.437 339.803 543.471 330.434 557.223C326.194 563.448 315.231 574.576 309.937 578.031C307.427 579.668 307.371 580.025 308.647 586.313C312.595 605.772 298.341 620.608 275.721 620.584C248.366 620.554 224.403 603.561 215.274 577.721L213.141 571.682L205.864 572.257C195.297 573.093 176.801 572.963 167.482 571.986L159.399 571.139L157.284 577.167C152.775 590.024 143.945 601.549 132.648 609.323C117.067 620.045 93.2178 623.558 79.8715 617.096C68.4789 611.58 61.7695 599.131 64.293 588.195C66.0705 580.495 65.983 579.436 63.4998 578.648C60.007 577.539 45.2631 562.509 40.7583 555.466C38.449 551.855 34.9573 544.7 33.0002 539.566C29.5384 530.483 29.4406 529.703 29.3991 510.656C29.3508 488.193 31.2572 478.487 39.3538 459.994C41.8486 454.294 44.1061 449.113 44.3698 448.479C44.6334 447.846 42.7224 446.033 40.124 444.45C33.9177 440.668 25.8522 430.743 21.4107 421.421C18.0951 414.464 17.8511 413.085 17.9363 401.847C18.0111 392.148 18.5534 388.39 20.6797 382.848C25.5402 370.184 35.4454 358.349 50.9652 346.663C57.0299 342.096 57.5572 341.35 57.023 338.075C55.8165 330.665 54.1081 316.372 54.1081 313.68C54.1081 312.142 54.762 310.885 55.5609 310.885C56.3599 310.885 61.0834 309.593 66.0556 308.014C71.0289 306.436 76.9923 304.634 79.3074 304.011C83.4554 302.894 83.5716 302.7 87.0955 291.048C96.6082 259.601 100.157 247.531 100.157 246.627C100.157 246.085 97.4371 243.901 94.1135 241.774C81.42 233.652 64.0087 214.495 55.7762 199.594C52.6633 193.958 52.3041 193.691 48.6512 194.284C42.9802 195.204 30.8255 191.483 23.0224 186.439C15.1019 181.319 7.19643 171.314 3.28223 161.459C1.10525 155.976 0.657405 152.63 0.620565 141.566C0.576818 128.471 0.64244 128.129 4.90316 119.507C12.5025 104.13 25.4366 94.7398 43.0861 91.7864C48.5902 90.8652 52.5539 89.5999 53.0766 88.597C53.552 87.6816 55.4665 83.5203 57.3304 79.3499C59.1931 75.1794 63.2074 67.9255 66.2501 63.23C73.2324 52.4561 94.6546 30.9959 105.716 23.6948ZM91.5451 63.2565C107.119 43.8389 140.18 26.1623 168.693 22.0079C179.716 20.4017 196.934 20.5905 207.499 22.434C237.098 27.5958 266.408 45.1596 282.94 67.6411C288.761 75.5548 298.17 91.8992 298.17 94.095C298.17 110.954 301.024 93.733 261.499 93.9453C240.605 94.0581 229.043 95.8244 215.478 100.978C204.786 105.039 195.282 107.031 186.454 107.059C178.311 107.085 167.28 104.666 163.125 101.944C161.7 101.009 154.331 98.8469 146.751 97.1382C134.873 94.46 130.262 94.0178 113.397 93.9361C102.633 93.8843 89.223 94.2827 83.5981 94.8215L73.3717 95.8014L74.158 92.5187C75.3529 87.54 84.7367 71.7471 91.5451 63.2565ZM76.6792 128.917C76.5019 112.962 78.7111 110.304 93.8257 108.276C103.706 106.951 130.468 107.871 139.488 109.846C149.877 112.122 154.122 114.518 156.083 119.212C161.027 131.046 154.016 155.337 142.351 166.787C135.856 173.162 127.207 176.168 115.361 176.168C98.8692 176.168 89.9 171.67 83.7098 160.295C79.1946 151.997 76.8173 141.387 76.6792 128.917ZM42.2481 109.897C47.5598 108.002 48.3519 107.926 48.3519 109.309C48.3519 187.301 57.5618 179.622 34.7834 144.405C27.0541 127.958 20.1577 117.777 42.2481 109.897ZM236.411 110.073C245.589 108.952 254.134 108.252 263.683 108.474C281.773 108.893 285.726 109.309 289.586 111.192C296.345 114.492 297.606 119.178 295.958 134.889C294.466 149.116 291.574 158.444 286.781 164.499C279.866 173.231 264.568 177.742 250.63 175.161C236.911 172.62 228.999 166.474 222.358 153.202C217.397 143.289 214.548 130.351 215.825 123.538C217.253 115.926 223.847 111.614 236.411 110.073ZM327.346 111.343C323.648 109.142 323.147 95.3483 344.187 119.311C348.481 124.205 352.342 132.056 351.515 134.214C351.211 135.008 349.481 136.27 347.673 137.02C345.865 137.768 343.448 139.418 342.3 140.686C341.153 141.954 339.264 143.5 338.1 144.122C336.294 145.089 336.141 144.948 337.045 143.152C338.689 139.888 337.848 127.581 335.698 123.422C333.694 119.546 333.094 118.787 330.925 115.42C329.806 113.685 328.195 111.85 327.346 111.343ZM261.911 112.928C266.224 114.966 270.607 118.046 272.239 120.185C286.61 139.03 275.4 163.997 252.634 163.842C242.756 163.776 234.458 158.94 228.962 150.046C225.161 143.894 225.544 133.18 229.875 124.52C235.528 113.217 250.268 107.424 261.911 112.928ZM98.7184 149.759C92.0159 136.54 96.9006 120.923 109.987 113.73C126.885 104.443 146.726 116.604 148.279 137.2C148.693 142.688 148.272 144.627 145.605 149.53C140.262 159.349 130.388 164.267 118.232 163.164C109.042 162.332 102.981 158.168 98.7184 149.759ZM111.473 137.417C108.829 135.025 108.75 129.248 111.323 126.404C114.066 123.373 119.489 124.139 122.327 127.958C127.517 134.944 117.951 143.28 111.473 137.417ZM243.486 139.323C237.284 139.323 233.716 131.094 237.908 126.46C242.02 121.917 250.969 126.103 250.969 132.57C250.969 135.626 246.873 139.323 243.486 139.323ZM169.712 145.795C174.479 133.307 175.006 132.548 180.25 130.635C182.826 129.696 186.507 129.267 188.803 129.639C192.641 130.261 199.164 135.117 199.164 137.352C199.164 137.93 202.231 144.814 205.978 152.651C215.896 173.386 225.765 183.288 240.197 186.977C255.601 190.913 267.738 190.452 281.134 185.419C288.454 182.669 305.9 170.644 305.913 161.584C305.92 157.664 311.31 132.704 312.382 131.634C313.471 130.544 313.273 141.672 311.987 153.883C310.585 167.185 305.446 181.631 298.204 192.619C291.878 202.22 279.154 215.371 270.267 221.492C263.907 225.873 244.401 234.824 240.877 234.978C239.779 235.027 237.068 235.81 234.852 236.717L230.823 238.368L235.428 237.784C237.96 237.463 241.899 236.884 244.179 236.498L248.326 235.796L250.927 247.051C253.22 256.976 264.77 293.605 267.061 298.219C267.533 299.169 268.266 301.396 268.69 303.167C269.448 306.334 269.204 306.51 254.157 313.678C245.739 317.687 233.161 323.579 226.204 326.77C219.246 329.96 208.144 335.174 201.533 338.355C191.807 343.034 186.214 346.344 176.427 340.977C170.253 337.884 151.474 329.024 134.694 321.288C117.915 313.55 103.756 306.811 103.229 306.31C102.702 305.809 102.829 304.431 103.512 303.248C105.021 300.635 120.326 253.304 122.928 243.203C124.219 238.192 125.256 236.149 126.304 236.552C127.135 236.871 131.306 237.421 135.573 237.772L143.329 238.411L134.995 236.131C115.787 230.874 99.8478 221.895 88.5841 209.986C69.408 189.71 59.9322 167.257 59.8838 141.981C59.8631 130.497 61.4092 126.869 62.6053 135.598C67.5545 171.709 84.0678 188.834 113.939 188.834C142.209 188.834 157.907 176.72 169.712 145.795ZM162.169 198.884C162.002 187.237 169.139 179.411 181.783 177.38C188.258 176.34 192.329 176.926 199.478 179.927C205.917 182.628 209.557 186.56 211.737 193.168C214.83 202.538 208.9 213.098 196.573 220.172C194.2 221.534 192.256 223.096 192.256 223.641C192.256 224.186 193.528 225.904 195.083 227.458C199.607 231.985 210.66 230.754 217.548 224.957C219.467 223.342 221.037 222.477 221.037 223.035C221.037 225.077 211.09 233.668 205.495 236.458C198.923 239.736 185.66 242.38 180.735 241.394C175.172 240.282 162.672 233.657 159.233 230L155.992 226.552L160.022 228.604C165.491 231.391 173.109 231.275 177.046 228.346C181.704 224.882 181.663 221.773 176.93 219.526C172.347 217.351 166.296 211.503 163.909 206.944C162.991 205.189 162.208 201.562 162.169 198.884ZM168.59 191.209C169.67 190.015 172.199 188.227 174.211 187.236C179.842 184.457 184.777 184.864 187.504 188.332C188.781 189.955 189.583 191.914 189.288 192.684C188.992 193.453 185.862 195.813 182.33 197.924C175.132 202.232 172.203 201.895 168.565 196.341C166.745 193.563 166.746 193.247 168.59 191.209ZM75.4635 317.745C77.3319 317.718 80.6463 316.745 82.8314 315.581C86.6431 313.551 86.9896 313.548 91.4656 315.496C102.758 320.41 117.56 327.055 126.06 331.029C131.126 333.396 142.782 338.685 151.963 342.781C161.144 346.877 172.59 352.176 177.397 354.557L186.137 358.884L207.329 349.137C218.984 343.777 241.134 333.509 256.55 326.318C283.838 313.592 284.668 313.29 287.884 314.954C289.701 315.893 293.129 317.065 295.501 317.558L299.814 318.455L290.645 322.851C285.603 325.27 263.086 335.282 240.608 345.1C218.13 354.918 196.822 364.231 193.255 365.795L186.772 368.639L170.806 361.752C87.8785 325.977 72.3451 319.326 72.7723 318.059C72.8841 317.727 74.088 317.764 75.4635 317.745ZM38.4548 393.872C40.5937 385.521 44.653 379.209 52.7657 371.622C59.4061 365.412 61.0155 364.914 61.0155 369.068C61.0155 372.972 63.9926 379.885 67.1147 383.233C70.177 386.517 75.5602 389.324 84.0402 392.06C97.6846 396.462 106.995 403.291 109.434 410.686C111.28 416.279 108.228 425.991 103.32 430.14C95.9727 436.35 90.6943 437.839 77.8362 437.325C63.3341 436.745 54.5398 433.22 46.7079 424.845C37.9747 415.507 35.3936 405.82 38.4548 393.872ZM290.594 391.895C305.231 386.916 309.8 382.473 311.425 371.63C312.215 366.359 312.312 366.251 314.702 367.925C326.024 375.855 334.058 388.794 334.804 400.303C335.762 415.073 328.658 426.091 313.614 433.17C306.494 436.52 304.344 436.962 293.262 437.357C281.698 437.768 280.452 437.592 274.582 434.719C263.702 429.395 259.759 419.757 264.589 410.288C268.826 401.983 276.132 396.815 290.594 391.895ZM49.4594 517.771C47.3688 502.739 50.9606 484.007 60.1497 462.009C63.4238 454.172 63.8567 453.662 67.2195 453.677C74.7071 453.709 75.5187 454.431 76.655 462.069L77.7084 469.157L101.309 479.059C114.289 484.505 128.535 490.66 132.968 492.734C137.4 494.81 144.912 498.053 149.661 499.94C154.409 501.827 164.234 505.956 171.493 509.116C178.949 512.361 185.71 514.622 187.034 514.311C188.324 514.008 194.559 511.693 200.89 509.163C217.507 502.526 280.213 477.164 288.602 473.686L295.727 470.733L296.499 464.546C297.45 456.932 298.699 455.279 304.231 454.309C308.524 453.557 308.589 453.603 310.985 459.075C314.772 467.716 320.762 487.912 322.352 497.395C326.304 520.976 318.466 544.234 301.986 557.83L294.446 564.051L290.126 561.192C283.58 556.859 274.886 553.934 266.141 553.121L258.267 552.388L264.74 539.582C271.029 527.143 276.957 511.508 275.816 510.368C275.508 510.059 270.476 513.816 264.634 518.717C246.577 533.87 231.617 542.497 214.472 547.641C200.682 551.778 176.222 552.105 161.173 548.351C143.055 543.833 125.515 533.95 107.655 518.192C102.598 513.731 98.1163 510.081 97.6938 510.081C95.3119 510.081 107.362 540.41 112.754 547.983C114.057 549.814 115.124 551.554 115.124 551.848C115.124 552.144 111.889 552.752 107.934 553.199C98.7898 554.234 89.3969 557.51 83.2838 561.795L78.4981 565.15L71.859 559.781C60.1417 550.303 51.8102 534.677 49.4594 517.771ZM95.5617 576.858C99.6647 574.765 109.552 572.687 119.153 571.9C128.547 571.131 136.997 571.386 136.997 572.438C136.997 574.711 133.67 576.614 132.356 579.72C132.182 580.131 132.107 580.371 131.934 580.784C128.41 589.171 122.623 593.112 115.039 596.823C104.349 602.054 91.7362 602.367 86.5441 597.53C80.9295 592.298 85.4032 582.042 95.5617 576.858ZM241.285 571.75C249.397 572.638 258.9 572.2 266.877 573.864C279.996 576.599 288.96 584.306 288.96 592.848C288.96 602.767 269.384 603.712 253.551 594.558C249.007 591.93 235.233 571.084 241.285 571.75Z" fill="#400799"/>
</svg>
