<svg width="18" height="18" viewBox="0 0 18 18" fill="none" xmlns="http://www.w3.org/2000/svg">
<path fill-rule="evenodd" clip-rule="evenodd" d="M8.58464 1.29297C4.55756 1.29297 1.29297 4.55756 1.29297 8.58464C1.29297 12.6117 4.55756 15.8763 8.58464 15.8763C12.6117 15.8763 15.8763 12.6117 15.8763 8.58464C15.8763 4.55756 12.6117 1.29297 8.58464 1.29297ZM0.0429688 8.58464C0.0429688 3.8672 3.8672 0.0429688 8.58464 0.0429688C13.3021 0.0429688 17.1263 3.8672 17.1263 8.58464C17.1263 10.7184 16.3439 12.6694 15.0504 14.1665L17.7766 16.8927C18.0207 17.1368 18.0207 17.5325 17.7766 17.7766C17.5325 18.0207 17.1368 18.0207 16.8927 17.7766L14.1665 15.0504C12.6694 16.3439 10.7184 17.1263 8.58464 17.1263C3.8672 17.1263 0.0429688 13.3021 0.0429688 8.58464Z" fill="#A3A3A3"/>
</svg>
