<svg width="95" height="20" viewBox="0 0 95 20" fill="none" xmlns="http://www.w3.org/2000/svg">
<path d="M14.4377 0.457031H19.1707L11.9624 13.1008V19.4092H7.50134V13.1008L0.292969 0.457031H5.02601L9.73185 9.06674L14.4377 0.457031Z" fill="#141414"/>
<path d="M24.916 19.707C22.8487 19.707 21.135 19.0663 19.7749 17.7847C18.4148 16.4852 17.7348 14.7975 17.7348 12.7218C17.7348 10.6641 18.4058 8.98551 19.7477 7.68594C21.1078 6.38636 22.7852 5.73657 24.78 5.73657C26.7385 5.73657 28.3615 6.35026 29.649 7.57764C30.9365 8.78697 31.5803 10.3844 31.5803 12.3698C31.5803 12.7308 31.5531 13.1821 31.4987 13.7236H22.1142C22.2593 14.5719 22.5766 15.2127 23.0663 15.6459C23.574 16.079 24.1815 16.2956 24.8888 16.2956C25.4872 16.2956 26.004 16.1512 26.4392 15.8624C26.8745 15.5556 27.1465 15.1495 27.2553 14.6441L31.0363 15.6459C30.6736 16.9815 29.9301 17.9923 28.8058 18.6782C27.6996 19.3641 26.403 19.707 24.916 19.707ZM22.2502 11.0161H27.4185C27.3097 10.5288 27.0195 10.1046 26.548 9.7436C26.0947 9.36456 25.5144 9.17503 24.8072 9.17503C23.5378 9.17503 22.6854 9.78872 22.2502 11.0161Z" fill="#141414"/>
<path d="M46.0429 15.9437C46.188 15.9437 46.3966 15.8985 46.6686 15.8083V19.4634C46.2878 19.6078 45.7528 19.68 45.0637 19.68C43.3228 19.68 42.1441 19.1926 41.5275 18.2179C40.5845 19.1926 39.2335 19.68 37.4745 19.68C36.0963 19.68 34.972 19.319 34.1015 18.597C33.2492 17.875 32.8231 16.8823 32.8231 15.6188C32.8231 14.4455 33.213 13.4979 33.9927 12.7759C34.7725 12.054 35.8243 11.6298 37.1481 11.5034L41.0379 11.1515V10.8807C41.0379 10.3573 40.8565 9.94215 40.4939 9.6353C40.1312 9.31041 39.6688 9.14796 39.1066 9.14796C38.0911 9.14796 37.4836 9.6353 37.2841 10.61L33.3943 10.0685C33.63 8.55232 34.301 7.45129 35.4072 6.7654C36.5315 6.07951 37.8735 5.73657 39.433 5.73657C41.2827 5.73657 42.7334 6.17879 43.7852 7.06322C44.8551 7.92961 45.3901 9.16601 45.3901 10.7724V15.2127C45.3901 15.7 45.6077 15.9437 46.0429 15.9437ZM41.0379 14.1568V13.8589L38.481 14.1568C38.0457 14.2109 37.7012 14.3553 37.4473 14.5899C37.1934 14.8065 37.0665 15.0683 37.0665 15.3751C37.0665 15.7361 37.2206 16.0159 37.5289 16.2144C37.8553 16.413 38.2633 16.5032 38.753 16.4852C39.4058 16.4491 39.9498 16.2325 40.3851 15.8354C40.8203 15.4383 41.0379 14.8787 41.0379 14.1568Z" fill="#141414"/>
<path d="M56.4558 5.73657C57.979 5.73657 59.2212 6.17879 60.1824 7.06322C61.1616 7.94766 61.6512 9.18406 61.6512 10.7724V19.4092H57.299V12.0991C57.299 11.2868 57.0995 10.6822 56.7006 10.2851C56.3016 9.86995 55.7576 9.66238 55.0685 9.66238C54.3794 9.66238 53.8263 9.87897 53.4092 10.3122C53.0103 10.7454 52.8108 11.3771 52.8108 12.2074V19.4092H48.4585V0.457031H52.8108V7.11737C53.6994 6.19684 54.9144 5.73657 56.4558 5.73657Z" fill="#141414"/>
<path d="M72.9432 6.00731H77.2954V19.4092H72.9432V18.2992C72.0546 19.2197 70.8396 19.68 69.2982 19.68C67.8475 19.68 66.6143 19.2197 65.5988 18.2992C64.6014 17.3606 64.1027 16.052 64.1027 14.3733V6.00731H68.455V13.4257C68.455 14.2019 68.6545 14.7885 69.0534 15.1856C69.4524 15.5646 69.9964 15.7541 70.6855 15.7541C71.3746 15.7541 71.9186 15.5376 72.3176 15.1044C72.7347 14.6712 72.9432 14.0394 72.9432 13.2091V6.00731Z" fill="#141414"/>
<path d="M88.0725 5.73657C89.9222 5.73657 91.4908 6.39538 92.7783 7.71301C94.0659 9.01259 94.7096 10.6822 94.7096 12.7218C94.7096 14.7253 94.0749 16.3859 92.8055 17.7035C91.5361 19.0211 89.9675 19.68 88.0997 19.68C86.5039 19.68 85.1982 19.1926 84.1827 18.2179V19.4092H79.8305V0.457031H84.1827V7.17152C85.1801 6.21488 86.4767 5.73657 88.0725 5.73657ZM87.202 15.9166C88.0362 15.9166 88.7435 15.6278 89.3238 15.0502C89.9041 14.4546 90.1942 13.6784 90.1942 12.7218C90.1942 11.7471 89.9041 10.971 89.3238 10.3934C88.7616 9.79775 88.0544 9.49993 87.202 9.49993C86.3316 9.49993 85.6062 9.79775 85.0259 10.3934C84.4638 10.971 84.1827 11.7471 84.1827 12.7218C84.1827 13.6784 84.4638 14.4546 85.0259 15.0502C85.6062 15.6278 86.3316 15.9166 87.202 15.9166Z" fill="#141414"/>
</svg>
